<svg xmlns="http://www.w3.org/2000/svg" xmlns:xlink="http://www.w3.org/1999/xlink" viewBox="0 0 50 50"><defs><linearGradient id="a" x1="-1497.18" y1="1054.55" x2="-1496.06" y2="1054.55" gradientTransform="matrix(8, 0, 0, -8, 11990.47, 8448.91)" gradientUnits="userSpaceOnUse"><stop offset="0" stop-color="#fff"/><stop offset="1" stop-color="#b3b3b3"/></linearGradient><clipPath id="b"><path d="M8.35,0A2.41,2.41,0,0,0,6,2.47V39.53A2.41,2.41,0,0,0,8.35,42H43.65A2.41,2.41,0,0,0,46,39.53V2.47A2.41,2.41,0,0,0,43.65,0Z" fill="none"/></clipPath><linearGradient id="c" x1="-1604.88" y1="1101.53" x2="-1603.71" y2="1101.53" gradientTransform="matrix(34, 0, 0, -34, 54571.99, 37472.99)" gradientUnits="userSpaceOnUse"><stop offset="0" stop-color="#ff9f59"/><stop offset="1" stop-color="#ff8429"/></linearGradient><clipPath id="d"><path d="M13,12.5A4.5,4.5,0,1,0,17.5,8,4.5,4.5,0,0,0,13,12.5" fill="none"/></clipPath><mask id="e" x="13" y="8" width="9" height="9" maskUnits="userSpaceOnUse"><rect x="13" y="8" width="9" height="9" fill="url(#a)"/></mask><linearGradient id="f" x1="-1497.18" y1="1054.55" x2="-1496.06" y2="1054.55" gradientTransform="matrix(8, 0, 0, -8, 11990.47, 8448.91)" gradientUnits="userSpaceOnUse"><stop offset="0" stop-color="#fff"/><stop offset="1" stop-color="#fff"/></linearGradient></defs><title>kt</title><path d="M47.73,50H2.27A2.28,2.28,0,0,1,0,47.71,36.54,36.54,0,0,1,36.36,11H47.73A2.28,2.28,0,0,1,50,13.29V47.71A2.28,2.28,0,0,1,47.73,50" fill="#ffebc7"/><g clip-path="url(#b)"><rect x="6" width="40" height="42" fill="url(#c)"/></g><path d="M46,39.64V31.12l-9.23-9.31a2.72,2.72,0,0,0-3.87,0L13,41.88H43.77A2.24,2.24,0,0,0,46,39.64" fill="#fcc12b"/><path d="M6,35.75v3.81A2.35,2.35,0,0,0,8.26,42H34L19,25.86a2.58,2.58,0,0,0-3.84,0Z" fill="#ffd44a"/><g clip-path="url(#d)"><g mask="url(#e)"><rect x="13" y="8" width="9" height="9" fill="url(#f)"/></g></g></svg>