<svg xmlns="http://www.w3.org/2000/svg" xmlns:xlink="http://www.w3.org/1999/xlink" viewBox="0 0 50 50"><defs><linearGradient id="a" x1="-1402.79" y1="1080.83" x2="-1401.64" y2="1080.83" gradientTransform="matrix(14, 0, 0, -14, 19656.01, 15153.7)" gradientUnits="userSpaceOnUse"><stop offset="0" stop-color="#fff"/><stop offset="1" stop-color="#b3b3b3"/></linearGradient><clipPath id="b"><path d="M6.19,8A2.27,2.27,0,0,0,4,10.71L9.86,40.18A2.27,2.27,0,0,0,12.09,42H37.91a2.27,2.27,0,0,0,2.23-1.82L46,10.71A2.27,2.27,0,0,0,43.82,8Z" fill="none"/></clipPath><linearGradient id="c" x1="-1451.44" y1="1101.87" x2="-1450.3" y2="1101.87" gradientTransform="matrix(34.89, 0, 0, -34.89, 50644.44, 38466.17)" gradientUnits="userSpaceOnUse"><stop offset="0" stop-color="#ff9f59"/><stop offset="1" stop-color="#ff8429"/></linearGradient><clipPath id="d"><path d="M29.57,16.75v4.08a4.61,4.61,0,0,1-5,4.64,4.78,4.78,0,0,1-4.11-4.85V16.75a1.71,1.71,0,1,0-3.43,0v3.74C17,25,20.37,28.86,24.75,29A8.08,8.08,0,0,0,33,20.83V16.75a1.71,1.71,0,1,0-3.43,0" fill="none"/></clipPath><mask id="e" x="17" y="15" width="16" height="14.13" maskUnits="userSpaceOnUse"><rect x="17" y="15" width="16" height="14.13" fill="url(#a)"/></mask><linearGradient id="f" x1="-1402.79" y1="1080.83" x2="-1401.64" y2="1080.83" gradientTransform="matrix(14, 0, 0, -14, 19656.01, 15153.7)" gradientUnits="userSpaceOnUse"><stop offset="0" stop-color="#fff"/><stop offset="1" stop-color="#fff"/></linearGradient></defs><title>sc</title><path d="M47.73,50H2.27A2.27,2.27,0,0,1,0,47.73,36.37,36.37,0,0,1,36.36,11.35H47.73A2.27,2.27,0,0,1,50,13.63v34.1A2.27,2.27,0,0,1,47.73,50" fill="#ffebc7"/><path d="M27.34,17.31l-5.56-5.58a2.69,2.69,0,0,1,0-3.79L28.89.79a2.66,2.66,0,0,1,3.77,0l5.55,5.58a2.69,2.69,0,0,1,0,3.79l-7.11,7.15a2.66,2.66,0,0,1-3.77,0" fill="#fcc12b"/><path d="M16.34,17.31l-5.55-5.58a2.69,2.69,0,0,1,0-3.79L17.89.79a2.66,2.66,0,0,1,3.77,0l5.55,5.58a2.69,2.69,0,0,1,0,3.79l-7.11,7.15a2.66,2.66,0,0,1-3.77,0" fill="#ffd44a"/><g clip-path="url(#b)"><rect x="3.68" y="8" width="42.65" height="34" fill="url(#c)"/></g><g clip-path="url(#d)"><g mask="url(#e)"><rect x="17" y="15" width="16" height="14.13" fill="url(#f)"/></g></g></svg>