<svg xmlns="http://www.w3.org/2000/svg" xmlns:xlink="http://www.w3.org/1999/xlink" viewBox="0 0 50 50"><defs><linearGradient id="a" x1="-1644.11" y1="1083.86" x2="-1642.94" y2="1083.86" gradientTransform="matrix(15.35, 0, 0, -15.35, 25256.89, 16659)" gradientUnits="userSpaceOnUse"><stop offset="0" stop-color="#fff"/><stop offset="1" stop-color="#b3b3b3"/></linearGradient><clipPath id="b"><path d="M12.15,0A2.18,2.18,0,0,0,10,2.21V39.79A2.18,2.18,0,0,0,12.15,42H37.86A2.18,2.18,0,0,0,40,39.79V2.21A2.18,2.18,0,0,0,37.86,0Z" fill="none"/></clipPath><linearGradient id="c" x1="-1677.02" y1="1098.38" x2="-1675.95" y2="1098.38" gradientTransform="matrix(28, 0, 0, -28, 46966.64, 30775.73)" gradientUnits="userSpaceOnUse"><stop offset="0" stop-color="#3ae6a1"/><stop offset="1" stop-color="#2bcc6f"/></linearGradient><clipPath id="d"><path d="M27.89,10a5.35,5.35,0,0,0-4.69,5.28v7.44a1.8,1.8,0,0,1-1.49,1.79,1.78,1.78,0,0,1-2.1-1.69,1.71,1.71,0,0,1,.95-1.51,1.62,1.62,0,0,0,.85-1.45,1.8,1.8,0,0,0-2.69-1.49A5.06,5.06,0,0,0,16.12,24a5.26,5.26,0,0,0,4.11,3.92,5.34,5.34,0,0,0,6.56-5V15.24a1.8,1.8,0,0,1,1.5-1.79,1.78,1.78,0,0,1,2.1,1.69,1.71,1.71,0,0,1-.95,1.51,1.62,1.62,0,0,0-.85,1.45,1.81,1.81,0,0,0,2.74,1.47A5.11,5.11,0,0,0,34,15.14,5.28,5.28,0,0,0,28.6,10a5.93,5.93,0,0,0-.71,0" fill="none"/></clipPath><mask id="e" x="15.6" y="10" width="18.4" height="18.58" maskUnits="userSpaceOnUse"><rect x="15.6" y="10" width="18.4" height="18.58" fill="url(#a)"/></mask><linearGradient id="f" x1="-1644.11" y1="1083.86" x2="-1642.94" y2="1083.86" gradientTransform="matrix(15.35, 0, 0, -15.35, 25256.89, 16659)" gradientUnits="userSpaceOnUse"><stop offset="0" stop-color="#fff"/><stop offset="1" stop-color="#fff"/></linearGradient></defs><title>qz</title><path d="M47.73,50H2.27A2.28,2.28,0,0,1,0,47.7,36.53,36.53,0,0,1,36.36,11H47.73A2.28,2.28,0,0,1,50,13.29V47.7A2.28,2.28,0,0,1,47.73,50" fill="#caffdf"/><g clip-path="url(#b)"><rect x="10" width="30" height="42" fill="url(#c)"/></g><path d="M34.82,34H15.18A2.2,2.2,0,0,1,13,31.79V5.21A2.2,2.2,0,0,1,15.18,3H34.82A2.2,2.2,0,0,1,37,5.21V31.79A2.2,2.2,0,0,1,34.82,34" fill="#78eaa6"/><g clip-path="url(#d)"><g mask="url(#e)"><rect x="15.6" y="10" width="18.4" height="18.58" fill="url(#f)"/></g></g><path d="M28.13,40H21.88a2,2,0,0,1,0-4h6.25a2,2,0,0,1,0,4" fill="#78eaa6"/></svg>