<svg xmlns="http://www.w3.org/2000/svg" xmlns:xlink="http://www.w3.org/1999/xlink" viewBox="0 0 50 50"><defs><linearGradient id="a" x1="-1809.5" y1="1017.84" x2="-1808.3" y2="1017.84" gradientTransform="matrix(5, 0, 0, -5, 9077.49, 5108.7)" gradientUnits="userSpaceOnUse"><stop offset="0" stop-color="#fff"/><stop offset="1" stop-color="#b3b3b3"/></linearGradient><linearGradient id="b" x1="-1809.89" y1="1017.74" x2="-1808.7" y2="1017.74" gradientTransform="matrix(5, 0, 0, -5, 9070.49, 5110.2)" xlink:href="#a"/><linearGradient id="c" x1="-1810.3" y1="1017.64" x2="-1809.1" y2="1017.64" gradientTransform="matrix(5, 0, 0, -5, 9063.49, 5111.7)" xlink:href="#a"/><clipPath id="d"><path d="M3,19.84C3,31,10,34.39,10,34.39v6A1.54,1.54,0,0,0,11.91,42l10.45-2.42s1.32.15,2.64.15c12.15,0,22-8.88,22-19.84S37.15,0,25,0,3,8.88,3,19.84" fill="none"/></clipPath><linearGradient id="e" x1="-1932.14" y1="1103.45" x2="-1931.01" y2="1103.45" gradientTransform="matrix(39.15, 0, 0, -39.15, 75651.29, 43224.1)" gradientUnits="userSpaceOnUse"><stop offset="0" stop-color="#3ae6a1"/><stop offset="1" stop-color="#2bcc6f"/></linearGradient><clipPath id="f"><path d="M31.2,12A1.23,1.23,0,0,0,30,13.25v12.5A1.23,1.23,0,0,0,31.2,27h3.6A1.23,1.23,0,0,0,36,25.75V13.25A1.23,1.23,0,0,0,34.8,12Z" fill="none"/></clipPath><mask id="g" x="30" y="12" width="6" height="15" maskUnits="userSpaceOnUse"><rect x="30" y="12" width="6" height="15" fill="url(#a)"/></mask><linearGradient id="h" x1="-1809.5" y1="1017.84" x2="-1808.3" y2="1017.84" gradientTransform="matrix(5, 0, 0, -5, 9077.49, 5108.7)" gradientUnits="userSpaceOnUse"><stop offset="0" stop-color="#fff"/><stop offset="1" stop-color="#fff"/></linearGradient><clipPath id="i"><path d="M22.22,16A1.21,1.21,0,0,0,21,17.22v8.56A1.21,1.21,0,0,0,22.22,27H25.8A1.21,1.21,0,0,0,27,25.78V17.22A1.21,1.21,0,0,0,25.8,16Z" fill="none"/></clipPath><mask id="j" x="21.02" y="16" width="5.98" height="11" maskUnits="userSpaceOnUse"><rect x="21.02" y="16" width="5.98" height="11" fill="url(#b)"/></mask><linearGradient id="k" x1="-1809.89" y1="1017.74" x2="-1808.7" y2="1017.74" gradientTransform="matrix(5, 0, 0, -5, 9070.49, 5110.2)" xlink:href="#h"/><clipPath id="l"><path d="M13.2,20A1.18,1.18,0,0,0,12,21.17v4.67A1.18,1.18,0,0,0,13.2,27h3.6A1.18,1.18,0,0,0,18,25.83V21.17A1.18,1.18,0,0,0,16.8,20Z" fill="none"/></clipPath><mask id="m" x="12" y="20" width="6" height="7" maskUnits="userSpaceOnUse"><rect x="12" y="20" width="6" height="7" fill="url(#c)"/></mask><linearGradient id="n" x1="-1810.3" y1="1017.64" x2="-1809.1" y2="1017.64" gradientTransform="matrix(5, 0, 0, -5, 9063.49, 5111.7)" xlink:href="#h"/></defs><title>gzhzs</title><path d="M47.73,50H2.27A2.28,2.28,0,0,1,0,47.7,36.53,36.53,0,0,1,36.36,11H47.73A2.28,2.28,0,0,1,50,13.29V47.7A2.28,2.28,0,0,1,47.73,50" fill="#caffdf"/><g clip-path="url(#d)"><rect x="3" width="44" height="42.18" fill="url(#e)"/></g><g clip-path="url(#f)"><g mask="url(#g)"><rect x="30" y="12" width="6" height="15" fill="url(#h)"/></g></g><g clip-path="url(#i)"><g mask="url(#j)"><rect x="21.02" y="16" width="5.98" height="11" fill="url(#k)"/></g></g><g clip-path="url(#l)"><g mask="url(#m)"><rect x="12" y="20" width="6" height="7" fill="url(#n)"/></g></g></svg>