<svg xmlns="http://www.w3.org/2000/svg" xmlns:xlink="http://www.w3.org/1999/xlink" viewBox="0 0 50 50"><defs><linearGradient id="a" x1="-1796.95" y1="1083.14" x2="-1795.7" y2="1083.14" gradientTransform="matrix(15.03, 0, 0, -15.03, 27026.42, 16312.74)" gradientUnits="userSpaceOnUse"><stop offset="0" stop-color="#fff"/><stop offset="1" stop-color="#b3b3b3"/></linearGradient><clipPath id="b"><path d="M7.5,14.82A2.49,2.49,0,0,0,5,17.29V39.53A2.49,2.49,0,0,0,7.5,42h35A2.48,2.48,0,0,0,45,39.53V17.29a2.48,2.48,0,0,0-2.5-2.47Z" fill="none"/></clipPath><linearGradient id="c" x1="-1836.28" y1="1100.58" x2="-1835.03" y2="1100.58" gradientTransform="matrix(32, 0, 0, -32, 58766, 35247)" gradientUnits="userSpaceOnUse"><stop offset="0" stop-color="#45a8ff"/><stop offset="1" stop-color="#2882ff"/></linearGradient><clipPath id="d"><path d="M16.25,27A1.27,1.27,0,0,0,15,28.29v6.43A1.27,1.27,0,0,0,16.25,36h17.5A1.27,1.27,0,0,0,35,34.71V28.29A1.27,1.27,0,0,0,33.75,27Z" fill="none"/></clipPath><mask id="e" x="15" y="27" width="20" height="9" maskUnits="userSpaceOnUse"><rect x="15" y="27" width="20" height="9" fill="url(#a)"/></mask><linearGradient id="f" x1="-1796.95" y1="1083.14" x2="-1795.7" y2="1083.14" gradientTransform="matrix(15.03, 0, 0, -15.03, 27026.42, 16312.74)" gradientUnits="userSpaceOnUse"><stop offset="0" stop-color="#fff"/><stop offset="1" stop-color="#fff"/></linearGradient></defs><title>yk</title><path d="M47.73,50H2.27A2.28,2.28,0,0,1,0,47.71,36.54,36.54,0,0,1,36.36,11H47.73A2.28,2.28,0,0,1,50,13.29V47.71A2.28,2.28,0,0,1,47.73,50" fill="#cae5ff"/><g clip-path="url(#b)"><rect x="5" y="14.82" width="40" height="27.18" fill="url(#c)"/></g><path d="M41.73,0H8.22A2.56,2.56,0,0,0,5.79,1.76C4.39,5.94,1,16.15,1,16.72A5.25,5.25,0,0,0,6.21,22a5.19,5.19,0,0,0,4.69-3,5.16,5.16,0,0,0,9.38,0,5.16,5.16,0,0,0,9.38,0A5.16,5.16,0,0,0,39,19a5.19,5.19,0,0,0,9.9-2.26c0-.57-3.39-10.78-4.79-15A2.56,2.56,0,0,0,41.73,0" fill="#5cbdff"/><g clip-path="url(#d)"><g mask="url(#e)"><rect x="15" y="27" width="20" height="9" fill="url(#f)"/></g></g></svg>