<svg xmlns="http://www.w3.org/2000/svg" xmlns:xlink="http://www.w3.org/1999/xlink" viewBox="0 0 50 50"><defs><linearGradient id="a" x1="-1293.97" y1="1019.23" x2="-1292.84" y2="1019.23" gradientTransform="matrix(5.11, 0, 0, -5.11, 6628.73, 5234.96)" gradientUnits="userSpaceOnUse"><stop offset="0" stop-color="#fff"/><stop offset="1" stop-color="#b3b3b3"/></linearGradient><clipPath id="b"><path d="M20.86,20a14.23,14.23,0,0,0-14,14.42v3.67A2.88,2.88,0,0,0,9.66,41H41.48a2.88,2.88,0,0,0,2.84-2.92V34.42A14.23,14.23,0,0,0,30.28,20Z" fill="none"/></clipPath><linearGradient id="c" x1="-1387.04" y1="1101.05" x2="-1385.9" y2="1101.05" gradientTransform="matrix(33, 0, 0, -33, 45779, 36365)" gradientUnits="userSpaceOnUse"><stop offset="0" stop-color="#45a8ff"/><stop offset="1" stop-color="#2882ff"/></linearGradient><clipPath id="d"><path d="M23.15,26a.4.4,0,0,0-.29.68l1.7,1.64-1.86,5a.51.51,0,0,0,.08.5l2.36,3a.55.55,0,0,0,.86,0l2.36-3a.52.52,0,0,0,.08-.5l-1.86-5,1.7-1.64A.4.4,0,0,0,28,26Z" fill="none"/></clipPath><mask id="e" x="22.6" y="26" width="5.93" height="11.07" maskUnits="userSpaceOnUse"><rect x="22.6" y="26" width="5.93" height="11.07" fill="url(#a)"/></mask><linearGradient id="f" x1="-1293.97" y1="1019.23" x2="-1292.84" y2="1019.23" gradientTransform="matrix(5.11, 0, 0, -5.11, 6628.73, 5234.96)" gradientUnits="userSpaceOnUse"><stop offset="0" stop-color="#fff"/><stop offset="1" stop-color="#fff"/></linearGradient></defs><title>yx</title><path d="M47.73,50H2.27A2.28,2.28,0,0,1,0,47.71,36.54,36.54,0,0,1,36.36,11H47.73A2.28,2.28,0,0,1,50,13.29V47.71A2.28,2.28,0,0,1,47.73,50" fill="#cae5ff"/><g clip-path="url(#b)"><rect x="6.82" y="20" width="37.5" height="21" fill="url(#c)"/></g><path d="M38.15,0H26V.05C25.67,0,25.34,0,25,0A12,12,0,1,0,35.34,5.94l3.8-2.47A1.89,1.89,0,0,0,38.15,0Z" fill="#5cbdff"/><g clip-path="url(#d)"><g mask="url(#e)"><rect x="22.6" y="26" width="5.93" height="11.07" fill="url(#f)"/></g></g></svg>